<svg width="18" height="18" viewBox="0 0 18 18" fill="none" xmlns="http://www.w3.org/2000/svg">
<path d="M6 15V16C6.26522 16 6.51957 15.8946 6.70711 15.7071L6 15ZM3 15H2C2 15.5523 2.44772 16 3 16V15ZM3 12L2.29289 11.2929C2.10536 11.4804 2 11.7348 2 12H3ZM11.4697 3.53033L12.1768 4.23744L12.1768 4.23744L11.4697 3.53033ZM12.5303 3.53033L11.8232 4.23744L11.8232 4.23744L12.5303 3.53033ZM14.4697 5.46967L15.1768 4.76256L15.1768 4.76256L14.4697 5.46967ZM14.4697 6.53033L13.7626 5.82322L14.4697 6.53033ZM6 14H3V16H6V14ZM4 15V12H2V15H4ZM3.70711 12.7071L12.1768 4.23744L10.7626 2.82322L2.29289 11.2929L3.70711 12.7071ZM11.8232 4.23744L13.7626 6.17678L15.1768 4.76256L13.2374 2.82322L11.8232 4.23744ZM13.7626 5.82322L5.29289 14.2929L6.70711 15.7071L15.1768 7.23744L13.7626 5.82322ZM13.7626 6.17678C13.6649 6.07915 13.6649 5.92085 13.7626 5.82322L15.1768 7.23744C15.8602 6.55402 15.8602 5.44598 15.1768 4.76256L13.7626 6.17678ZM12.1768 4.23744C12.0791 4.33507 11.9209 4.33507 11.8232 4.23744L13.2374 2.82322C12.554 2.13981 11.446 2.13981 10.7626 2.82322L12.1768 4.23744Z" fill="#333333"/>
<path d="M9 6L12 9" stroke="#333333" stroke-width="2" stroke-linecap="round" stroke-linejoin="round"/>
</svg>
