<svg width="235" height="178" viewBox="0 0 235 178" fill="none" xmlns="http://www.w3.org/2000/svg">
<g clip-path="url(#clip0_4_2)">
<path d="M70.8804 18.7423C70.8804 9.90305 66.337 2.8313 57.6045 2.8313C49.725 2.8313 44.7331 10.0071 44.7331 18.7423" fill="#C1D8ED"/>
<path d="M57.6049 2.83347C66.3292 2.83347 70.8661 9.89302 70.8804 18.7194C70.8877 18.7832 70.8911 18.8474 70.8905 18.9116V103.432C70.8805 105.528 71.2846 107.605 72.0794 109.544C72.8742 111.483 74.0442 113.246 75.5221 114.731C77 116.217 78.7567 117.395 80.6913 118.2C82.6259 119.004 84.7003 119.418 86.7953 119.418C88.8903 119.418 90.9647 119.004 92.8993 118.2C94.8339 117.395 96.5906 116.217 98.0685 114.731C99.5464 113.246 100.716 111.483 101.511 109.544C102.306 107.605 102.71 105.528 102.7 103.432H153.358V20.5109C153.358 11.0468 147.896 3.24664 138.436 2.83347H57.6049Z" fill="#D7E8F4"/>
<path d="M86.7958 119.342H153.357C155.446 119.342 157.514 118.93 159.444 118.131C161.374 117.331 163.127 116.159 164.604 114.682C166.081 113.204 167.253 111.45 168.052 109.52C168.851 107.59 169.263 105.521 169.263 103.431H102.701C102.71 105.523 102.304 107.596 101.508 109.53C100.712 111.465 99.5405 113.222 98.0619 114.701C96.5832 116.18 94.8264 117.352 92.8927 118.148C90.9591 118.945 88.887 119.351 86.7958 119.342Z" fill="#C1D8ED"/>
<path d="M95.2118 37.0273L129.356 37.0273C130.896 37.0273 132.144 35.7787 132.144 34.2385C132.144 32.6983 130.896 31.4497 129.356 31.4497L95.2118 31.4497C93.672 31.4497 92.4238 32.6983 92.4238 34.2385C92.4238 35.7787 93.672 37.0273 95.2118 37.0273Z" fill="#FAFBFC"/>
<path d="M139.11 50.6077H85.4574C84.8014 50.6077 84.2696 51.1397 84.2696 51.7959V51.7963C84.2696 52.4525 84.8014 52.9845 85.4574 52.9845H139.11C139.766 52.9845 140.298 52.4525 140.298 51.7963V51.7959C140.298 51.1397 139.766 50.6077 139.11 50.6077Z" fill="#FAFBFC"/>
<path d="M139.11 44.9003H85.4574C84.8014 44.9003 84.2696 45.4323 84.2696 46.0886V46.0889C84.2696 46.7452 84.8014 47.2772 85.4574 47.2772H139.11C139.766 47.2772 140.298 46.7452 140.298 46.0889V46.0886C140.298 45.4323 139.766 44.9003 139.11 44.9003Z" fill="#FAFBFC"/>
<path d="M139.11 56.3154H85.4574C84.8014 56.3154 84.2696 56.8474 84.2696 57.5037V57.504C84.2696 58.1603 84.8014 58.6923 85.4574 58.6923H139.11C139.766 58.6923 140.298 58.1603 140.298 57.504V57.5037C140.298 56.8474 139.766 56.3154 139.11 56.3154Z" fill="#FAFBFC"/>
<path d="M139.11 62.0232H85.4574C84.8014 62.0232 84.2696 62.5552 84.2696 63.2114V63.2118C84.2696 63.8681 84.8014 64.4001 85.4574 64.4001H139.11C139.766 64.4001 140.298 63.8681 140.298 63.2118V63.2114C140.298 62.5552 139.766 62.0232 139.11 62.0232Z" fill="#FAFBFC"/>
<path d="M139.11 67.731H85.4574C84.8014 67.731 84.2696 68.263 84.2696 68.9192V68.9196C84.2696 69.5758 84.8014 70.1078 85.4574 70.1078H139.11C139.766 70.1078 140.298 69.5758 140.298 68.9196V68.9192C140.298 68.263 139.766 67.731 139.11 67.731Z" fill="#FAFBFC"/>
<path d="M139.11 79.1461H85.4574C84.8014 79.1461 84.2696 79.6781 84.2696 80.3344V80.3347C84.2696 80.991 84.8014 81.523 85.4574 81.523H139.11C139.766 81.523 140.298 80.991 140.298 80.3347V80.3344C140.298 79.6781 139.766 79.1461 139.11 79.1461Z" fill="#FAFBFC"/>
<path d="M139.11 73.4387H85.4574C84.8014 73.4387 84.2696 73.9707 84.2696 74.627V74.6273C84.2696 75.2836 84.8014 75.8156 85.4574 75.8156H139.11C139.766 75.8156 140.298 75.2836 140.298 74.6273V74.627C140.298 73.9707 139.766 73.4387 139.11 73.4387Z" fill="#FAFBFC"/>
<path d="M122.975 84.8539H101.592C100.936 84.8539 100.404 85.3859 100.404 86.0421V86.0425C100.404 86.6987 100.936 87.2307 101.592 87.2307H122.975C123.631 87.2307 124.163 86.6987 124.163 86.0425V86.0421C124.163 85.3859 123.631 84.8539 122.975 84.8539Z" fill="#FAFBFC"/>
<path d="M38.0375 14.1155C38.145 15.4314 36.774 16.6566 36.5481 17.8969C36.3143 19.1802 37.1526 20.81 36.6055 21.9613C36.0508 23.1291 34.2524 23.5078 33.421 24.4866C32.5895 25.4654 32.5053 27.3018 31.4426 28.0374C30.3949 28.7629 28.6517 28.1977 27.4237 28.6353C26.2366 29.0581 25.2488 30.6079 23.933 30.7155C22.6172 30.8231 21.3928 29.4512 20.153 29.2253C18.8701 28.9914 17.2409 29.83 16.09 29.2826C14.9226 28.7278 14.544 26.9287 13.5656 26.097C12.5871 25.2653 10.7514 25.181 10.0161 24.1179C9.29076 23.0699 9.85581 21.3261 9.41839 20.0977C8.99568 18.9101 7.44645 17.922 7.33889 16.6057C7.23132 15.2894 8.60273 14.0646 8.8286 12.8243C9.06237 11.541 8.22411 9.91127 8.77124 8.75997C9.32589 7.59216 11.1243 7.21341 11.9558 6.23462C12.7872 5.25583 12.8715 3.41948 13.9342 2.68386C14.9818 1.95829 16.725 2.52354 17.953 2.08597C19.1401 1.66311 20.1279 0.113326 21.4437 0.00572715C22.7595 -0.101872 23.9839 1.27001 25.2237 1.49597C26.5066 1.72982 28.1358 0.891265 29.2867 1.43858C30.4541 1.99344 30.8341 3.79249 31.8111 4.62423C32.7881 5.45597 34.6253 5.54025 35.3606 6.60333C36.086 7.65134 35.5209 9.39516 35.9583 10.6236C36.381 11.8111 37.931 12.7992 38.0375 14.1155Z" fill="#0F1011"/>
<path d="M17.9229 28.419C18.6328 27.2175 19.3929 24.8897 19.0415 20.5679L24.7709 19.5098C24.7709 19.5098 24.1256 26.2527 26.9974 28.419H17.9229Z" fill="#E98862"/>
<path opacity="0.15" d="M25.8444 27.0173L21.0891 23.3715L24.8265 23.3357C24.9335 24.6156 25.2788 25.8643 25.8444 27.0173Z" fill="black"/>
<path d="M15.7939 17.6372C16.1883 19.9291 17.4367 22.0997 19.4563 22.8418C21.6579 23.7181 24.0403 24.0423 26.3958 23.7862C32.6669 23.2772 31.4393 9.01284 28.4645 6.24073C25.4898 3.46863 16.7512 5.21424 15.6842 9.84745C15.1324 12.2422 15.4171 15.4559 15.7939 17.6372Z" fill="#E98862"/>
<path d="M24.7663 15.8801C25.0532 15.8801 25.2858 15.6475 25.2858 15.3604C25.2858 15.0734 25.0532 14.8407 24.7663 14.8407C24.4793 14.8407 24.2467 15.0734 24.2467 15.3604C24.2467 15.6475 24.4793 15.8801 24.7663 15.8801Z" fill="#0F1011"/>
<path d="M28.865 15.5477C29.152 15.5477 29.3846 15.315 29.3846 15.028C29.3846 14.7409 29.152 14.5083 28.865 14.5083C28.5781 14.5083 28.3455 14.7409 28.3455 15.028C28.3455 15.315 28.5781 15.5477 28.865 15.5477Z" fill="#0F1011"/>
<path d="M29.7664 13.9215H29.7632L28.3871 13.9028C28.324 13.9 28.2645 13.8729 28.2209 13.8271C28.1774 13.7813 28.1534 13.7204 28.1538 13.6572C28.1542 13.594 28.1791 13.5335 28.2232 13.4883C28.2673 13.443 28.3272 13.4167 28.3903 13.4147H28.3936L29.7696 13.433C29.8344 13.4334 29.8963 13.4596 29.9418 13.5057C29.9873 13.5518 30.0126 13.6141 30.0122 13.6789C30.0118 13.7436 29.9856 13.8056 29.9395 13.8511C29.8934 13.8966 29.8312 13.9219 29.7664 13.9215Z" fill="#0F1011"/>
<path d="M23.6455 14.4182C23.5858 14.418 23.5283 14.3959 23.4838 14.3561C23.4393 14.3164 23.4109 14.2617 23.4039 14.2024C23.397 14.1431 23.412 14.0833 23.4462 14.0343C23.4803 13.9853 23.5312 13.9506 23.5892 13.9366L24.9462 13.6113C24.9778 13.6027 25.0107 13.6006 25.0431 13.605C25.0754 13.6095 25.1066 13.6203 25.1347 13.637C25.1627 13.6537 25.1872 13.6758 25.2066 13.7022C25.2259 13.7285 25.2398 13.7584 25.2475 13.7902C25.2551 13.8219 25.2562 13.8549 25.2508 13.8871C25.2455 13.9194 25.2337 13.9502 25.2162 13.9778C25.1987 14.0054 25.1759 14.0292 25.149 14.0478C25.1222 14.0664 25.0919 14.0794 25.0599 14.0861L23.7028 14.4114C23.6841 14.416 23.6648 14.4183 23.6455 14.4182Z" fill="#0F1011"/>
<path d="M25.0029 19.4539C25.0029 19.4539 26.9203 19.658 28.2656 19.1892C28.2656 19.1892 28.2537 20.4528 26.7364 20.5758C25.2191 20.6988 25.0029 19.4539 25.0029 19.4539Z" fill="#F8FCFF"/>
<path d="M20.0185 11.7046C20.3948 17.0752 19.8039 22.4697 18.2739 27.6314C18.2739 27.6314 13.9022 20.0905 13.226 13.8121C12.5921 7.92645 16.9308 4.45531 19.8604 3.80183C30.9933 1.32311 31.7946 9.45829 31.7946 9.45829C29.7664 13.6772 18.8135 13.6586 18.8135 13.6586" fill="#0F1011"/>
<path d="M22.1411 17.5981C22.1813 18.1767 21.9919 18.7478 21.6139 19.1876C21.2359 19.6273 20.6998 19.9003 20.1219 19.9472C19.544 19.994 18.971 19.8111 18.5271 19.438C18.0832 19.0649 17.8042 18.5318 17.7508 17.9543C17.7224 17.6649 17.7525 17.3729 17.8393 17.0954C17.9261 16.818 18.0678 16.5608 18.256 16.3393C18.4442 16.1178 18.6751 15.9364 18.9348 15.806C19.1946 15.6756 19.4779 15.5989 19.7679 15.5803C21.3376 15.5301 22.0428 16.3855 22.1411 17.5981Z" fill="#E98862"/>
<g opacity="0.15">
<path opacity="0.15" d="M27.0695 18.2451C27.0266 18.2451 26.9851 18.2296 26.9526 18.2016C26.9201 18.1735 26.8988 18.1348 26.8924 18.0923C26.8861 18.0498 26.8952 18.0065 26.9181 17.9702C26.941 17.9339 26.9761 17.907 27.0171 17.8944L28.0738 17.5716L27.3366 15.9246C27.3172 15.8812 27.3158 15.8318 27.3327 15.7873C27.3496 15.7429 27.3835 15.707 27.427 15.6875C27.4704 15.6681 27.5197 15.6667 27.5642 15.6836C27.6086 15.7006 27.6445 15.7345 27.6639 15.7779L28.4846 17.6107C28.495 17.6339 28.5003 17.659 28.5002 17.6844C28.5001 17.7098 28.4947 17.7349 28.4842 17.758C28.4737 17.7812 28.4584 17.8018 28.4393 17.8186C28.4202 17.8353 28.3978 17.8478 28.3735 17.8553L27.1226 18.2383C27.1053 18.2432 27.0874 18.2455 27.0695 18.2451Z" fill="black"/>
</g>
<path d="M37.0422 78.323C44.195 109.845 50.6719 141.579 55.7832 173.5L48.5982 174.979C40.6992 143.632 34.1283 111.916 28.2627 80.1296L37.0422 78.323Z" fill="#E98862"/>
<path d="M22.2568 80.2755C22.9137 111.591 22.8664 142.977 21.4426 174.272H14.1073C12.6843 142.978 12.6373 111.591 13.2934 80.2755H22.2568Z" fill="#E98862"/>
<path d="M30.9331 177.165C31.1355 177.164 31.3356 177.121 31.5209 177.039C31.7061 176.958 31.8725 176.838 32.0096 176.689C32.1467 176.54 32.2517 176.365 32.3179 176.173C32.3841 175.982 32.4102 175.779 32.3944 175.577C32.3729 175.297 32.2716 175.029 32.1027 174.804C31.9338 174.58 31.7042 174.408 31.4411 174.31L22.6778 171.374C22.508 171.318 22.328 171.299 22.1502 171.318C21.9724 171.338 21.801 171.396 21.6477 171.488C20.443 172.325 19.0019 172.752 17.5364 172.708C16.3947 172.627 15.2989 172.226 14.3737 171.552C14.2924 171.486 14.1938 171.443 14.0895 171.43C13.9851 171.418 13.8792 171.435 13.7842 171.48C13.6892 171.525 13.609 171.596 13.553 171.685C13.4969 171.774 13.4673 171.878 13.4677 171.983V176.269C13.4676 176.396 13.4926 176.521 13.5411 176.638C13.5895 176.755 13.6606 176.861 13.7502 176.95C13.8398 177.039 13.9461 177.11 14.0631 177.158C14.1801 177.206 14.3054 177.231 14.4318 177.23L30.9331 177.165Z" fill="#C1D8ED"/>
<path d="M64.5397 177.165C64.7422 177.164 64.9423 177.121 65.1276 177.04C65.3128 176.958 65.4792 176.839 65.6164 176.69C65.7535 176.54 65.8585 176.365 65.9247 176.173C65.9909 175.982 66.0169 175.779 66.0011 175.577C65.9795 175.297 65.8783 175.029 65.7095 174.804C65.5406 174.58 65.3112 174.408 65.0481 174.31L56.2844 171.374C56.1147 171.318 55.9348 171.299 55.757 171.318C55.5793 171.338 55.4079 171.396 55.2547 171.488C54.0499 172.325 52.6087 172.752 51.143 172.708C50.0015 172.627 48.9057 172.226 47.9807 171.552C47.8994 171.486 47.8008 171.443 47.6964 171.431C47.592 171.418 47.4862 171.435 47.3911 171.48C47.2961 171.525 47.2159 171.596 47.1598 171.685C47.1037 171.774 47.0741 171.877 47.0743 171.983V176.269C47.0743 176.396 47.0993 176.521 47.1478 176.638C47.1963 176.755 47.2674 176.861 47.357 176.95C47.4465 177.039 47.5529 177.11 47.6698 177.158C47.7867 177.206 47.912 177.23 48.0384 177.23L64.5397 177.165Z" fill="#C1D8ED"/>
<path d="M8.74828 66.7554C8.74828 66.7554 4.67531 85.0009 4.67531 100.346C4.67531 115.69 0 139.456 0 139.456C0 139.456 13.254 137.311 22.245 139.456C37.737 143.151 51.6292 135.104 51.6292 135.104L36.0257 68.4397L8.74828 66.7554Z" fill="#262626"/>
<path d="M79.2544 49.6715C79.2544 49.6715 82.1977 48.2408 84.408 48.79C86.6184 49.3391 85.583 50.2906 83.9742 50.6292C82.3655 50.9677 78.8317 51.5183 78.8317 51.5183" fill="#E98862"/>
<path d="M80.9736 49.603C80.9736 49.603 86.4298 49.0292 86.4864 50.3426C86.4864 50.3426 86.7256 54.3937 85.9845 55.0203C84.8655 55.9657 79.3232 55.2254 79.3232 55.2254L80.9736 49.603Z" fill="#E98862"/>
<path d="M66.5497 56.2986H45.2243C44.5929 56.2985 43.9717 56.1397 43.4178 55.8366C42.8639 55.5335 42.3951 55.0959 42.0545 54.5641L28.58 33.522L34.9214 29.4595L47.2852 48.7666H66.5511L66.5497 56.2986Z" fill="#367CFF"/>
<path d="M37.7539 69.1347C36.2516 72.5887 6.73331 74.0233 6.33892 67.9476C6.08794 64.0808 9.49403 60.7062 9.49403 53.1707C9.49403 45.6352 2.56425 36.0119 8.21048 30.3629C9.84899 28.7242 12.6778 27.6662 16.127 27.6626C16.3851 29.6743 28.5968 29.6818 28.6901 27.7092C29.1562 27.7164 29.5183 27.7232 29.7442 27.7343C41.6404 28.2472 36.4129 41.7903 36.2982 51.7396C36.1591 63.3818 39.3034 65.5768 37.7539 69.1347Z" fill="#367CFF"/>
<path d="M28.6908 27.7092C28.5976 29.6818 27.5255 32.5831 24.2163 32.8022C19.8063 33.0927 16.3858 29.6743 16.1277 27.6626H16.1384C20.4803 27.6626 26.1595 27.6697 28.6908 27.7092Z" fill="#E98862"/>
<path d="M63.4186 74.0524C75.2994 74.0524 84.9308 64.4176 84.9308 52.5326C84.9308 40.6476 75.2994 31.0128 63.4186 31.0128C51.5378 31.0128 41.9064 40.6476 41.9064 52.5326C41.9064 64.4176 51.5378 74.0524 63.4186 74.0524Z" fill="#0CBC8B"/>
<g opacity="0.29">
<path opacity="0.29" d="M63.4186 66.4832C71.1205 66.4832 77.3642 60.2373 77.3642 52.5326C77.3642 44.8279 71.1205 38.5821 63.4186 38.5821C55.7166 38.5821 49.473 44.8279 49.473 52.5326C49.473 60.2373 55.7166 66.4832 63.4186 66.4832Z" fill="white"/>
</g>
<path d="M58.8541 57.5159L60.1548 55.4977C61.186 56.2867 62.0877 56.6913 63.0471 56.6913C64.1966 56.6913 64.7025 56.2143 64.7025 55.2907C64.7025 53.2029 59.3481 53.2406 59.3481 49.579C59.3481 47.2251 60.978 45.7259 63.5484 45.7259C64.2783 45.7154 65.0018 45.8639 65.6687 46.1612C66.3355 46.4585 66.9296 46.8974 67.4098 47.4475L65.9176 49.1572C65.1804 48.4865 64.5551 48.1332 63.7083 48.1332C62.7323 48.1332 62.2024 48.5278 62.2024 49.4384C62.2024 51.3752 67.5568 51.2045 67.5568 55.0831C67.5568 57.4144 66.0151 59.1001 63.0464 59.1001C61.5094 59.065 60.0304 58.5061 58.8541 57.5159ZM62.4215 43.7371H64.4003V46.6595H62.4211L62.4215 43.7371ZM62.4215 57.8803H64.4003V61.0867H62.4211L62.4215 57.8803Z" fill="white"/>
<path d="M85.9827 55.0232C85.8822 55.1032 85.7698 55.1671 85.6496 55.2125C85.0064 55.3452 83.3855 54.9572 83.1256 54.5074C82.7025 53.7754 82.9649 51.1306 83.3382 50.1708C83.6885 49.2741 85.4331 49.6497 85.6622 49.6923C85.6693 49.6949 85.6766 49.6968 85.6841 49.6981C86.1598 49.8286 86.4729 50.0323 86.4861 50.3455C86.4861 50.3455 86.7263 54.3948 85.9827 55.0232Z" fill="#E98862"/>
<path d="M38.4838 57.4682C38.4838 57.4682 39.3475 52.7503 42.6841 53.5713C44.789 54.0896 50.9067 53.1649 50.9996 55.8689C51.0803 58.2153 45.3347 58.8408 43.4345 58.6453C41.7289 58.4699 38.4838 57.4682 38.4838 57.4682Z" fill="#E98862"/>
<path d="M41.4622 53.5193C41.4622 53.5193 46.4254 52.7869 47.534 53.2585C48.5156 53.6757 46.0998 54.9801 46.0998 54.9801L41.4622 53.5193Z" fill="#E98862"/>
<path d="M43.0498 60.0882L20.8636 59.411C20.1711 59.39 19.4967 59.1851 18.9094 58.8175C18.3221 58.4499 17.843 57.9327 17.5213 57.319L6.56729 36.4251L13.4906 32.7929L23.3841 51.6639L43.2882 52.2715L43.0498 60.0882Z" fill="#367CFF"/>
<path d="M168.849 174.12L176.326 173.23C175.989 170.399 175.609 166.999 175.583 166.441C175.583 166.477 175.583 166.506 175.583 166.529H168.054C168.055 166.755 168.055 167.442 168.849 174.12Z" fill="#E98862"/>
<path d="M198.85 175.02L206.379 174.995C206.379 174.995 206.354 167.218 206.354 166.529H198.825C198.825 167.22 198.85 175.02 198.85 175.02Z" fill="#E98862"/>
<path d="M166.072 171.515C166.695 155.731 166.733 139.153 166.928 123.327C169.516 106.256 170.878 87.5345 174.075 70.5848L174.17 70.6128L174.451 68.7015L201.727 67.0157L202.687 84.8413C204.059 108.721 206.714 147.111 208.32 171.311L195.101 172.431C192.74 148.63 189.249 110.714 187.116 87.2562C184.774 99.209 182.208 112.67 180.13 124.764C179.675 140.215 179.294 156.316 179.335 171.741L166.072 171.515Z" fill="#262626"/>
<path d="M189.697 177.933C189.495 177.932 189.295 177.889 189.109 177.807C188.924 177.725 188.758 177.606 188.621 177.457C188.483 177.308 188.378 177.133 188.312 176.941C188.246 176.75 188.22 176.547 188.236 176.345C188.258 176.065 188.359 175.797 188.528 175.573C188.697 175.348 188.926 175.177 189.189 175.079L197.952 172.143C198.122 172.086 198.302 172.068 198.48 172.087C198.658 172.107 198.829 172.165 198.982 172.257C200.187 173.094 201.628 173.521 203.094 173.477C204.235 173.396 205.331 172.995 206.257 172.321C206.338 172.254 206.436 172.212 206.541 172.199C206.645 172.187 206.751 172.204 206.846 172.249C206.941 172.294 207.021 172.365 207.077 172.454C207.133 172.543 207.163 172.646 207.163 172.752V177.039C207.163 177.166 207.138 177.291 207.089 177.408C207.041 177.525 206.97 177.631 206.88 177.72C206.79 177.809 206.684 177.88 206.567 177.928C206.45 177.976 206.325 178 206.198 178L189.697 177.933Z" fill="#C1D8ED"/>
<path d="M159.676 177.933C159.473 177.932 159.273 177.889 159.088 177.807C158.903 177.725 158.736 177.606 158.599 177.457C158.462 177.308 158.357 177.133 158.291 176.941C158.224 176.75 158.198 176.547 158.214 176.345C158.236 176.065 158.337 175.797 158.506 175.573C158.675 175.349 158.905 175.177 159.167 175.079L167.931 172.143C168.101 172.086 168.281 172.068 168.459 172.087C168.636 172.107 168.808 172.165 168.961 172.257C170.166 173.094 171.607 173.521 173.073 173.477C174.214 173.396 175.31 172.995 176.235 172.321C176.316 172.254 176.415 172.212 176.519 172.199C176.623 172.187 176.729 172.204 176.824 172.249C176.919 172.294 177 172.365 177.056 172.454C177.112 172.543 177.141 172.646 177.141 172.752V177.039C177.141 177.166 177.116 177.291 177.067 177.408C177.019 177.525 176.948 177.631 176.858 177.72C176.769 177.809 176.663 177.88 176.546 177.928C176.429 177.976 176.304 178 176.177 178L159.676 177.933Z" fill="#C1D8ED"/>
<path d="M191.249 93.0493V116.347C191.249 117.285 191.622 118.185 192.285 118.849C192.948 119.513 193.848 119.885 194.786 119.886H231.463C232.401 119.885 233.301 119.513 233.964 118.849C234.627 118.185 235 117.285 235 116.347V93.0493C235 92.1108 234.627 91.2108 233.964 90.5472C233.301 89.8836 232.401 89.5107 231.463 89.5107H221.769V87.0521C221.768 86.1751 221.419 85.3343 220.799 84.7142C220.179 84.0941 219.339 83.7452 218.462 83.7442H207.786C206.91 83.7452 206.069 84.0941 205.449 84.7142C204.829 85.3343 204.481 86.1751 204.48 87.0521V89.5107H194.786C193.848 89.5107 192.948 89.8836 192.285 90.5472C191.622 91.2108 191.249 92.1108 191.249 93.0493ZM219.618 89.5107H206.631V87.0521C206.631 86.7456 206.753 86.4518 206.97 86.2351C207.186 86.0184 207.48 85.8965 207.786 85.8961H218.462C218.769 85.8965 219.062 86.0184 219.279 86.2351C219.495 86.4518 219.617 86.7456 219.618 87.0521V89.5107Z" fill="#0CBC8B"/>
<path d="M141.765 59.3644C140.725 59.608 137.118 59.8737 137.077 60.8156C137.052 61.3805 139.79 61.3988 139.79 61.3988" fill="#E98862"/>
<path d="M139.732 66.294C144.032 65.2864 147.232 63.248 146.879 61.7412C146.526 60.2343 142.754 59.8296 138.454 60.8372C134.154 61.8448 130.954 63.8832 131.307 65.39C131.66 66.8968 135.432 67.3016 139.732 66.294Z" fill="#E98862"/>
<path d="M209.736 79.2257C209.736 80.2946 209.172 83.8679 210.08 84.1233C210.623 84.2761 211.266 81.6126 211.266 81.6126" fill="#E98862"/>
<path d="M214.02 78.6648C214.02 78.6648 217.089 81.9724 215.003 85.8961C214.713 86.4402 211.893 86.7598 211.893 86.093C211.893 83.2955 211.676 81.1012 209.834 81.7719V77.2657" fill="#E98862"/>
<path d="M160.481 51.4165L173.832 31.458L173.911 31.5107C175.058 29.76 177.028 28.6414 180.283 28.5022C180.509 28.4915 180.871 28.4843 181.338 28.4771C181.43 30.4498 193.642 30.4426 193.901 28.4305C197.349 28.4341 200.178 29.4921 201.817 31.1312C202.579 31.8858 203.163 32.8007 203.528 33.8093L203.571 33.79L212.238 53.3098C212.388 53.6489 212.49 54.0077 212.539 54.3754L215.907 79.4205L208.159 80.4627L204.868 55.9725L201.452 48.2807C200.905 50.1194 200.597 52.021 200.535 53.9386C200.535 61.4741 203.941 64.8491 203.69 68.7155C203.295 74.7912 173.777 73.3566 172.275 69.9026C170.726 66.3447 173.87 64.1497 173.73 52.5075C173.674 50.4644 173.512 48.4255 173.245 46.3991L166.263 56.8362C165.798 57.5314 165.123 58.0593 164.336 58.3426L142.481 66.1973L139.838 58.8368L160.481 51.4165Z" fill="#367CFF"/>
<path d="M181.339 28.4778C181.431 30.4505 182.504 33.3521 185.813 33.5708C190.223 33.8614 193.643 30.4433 193.902 28.4312H193.891C189.549 28.4305 183.87 28.4377 181.339 28.4778Z" fill="#E98862"/>
<path d="M190.861 23.7758C190.847 22.9666 190.876 22.1573 190.946 21.3512C189.984 21.1719 186.245 20.4804 185.217 20.2896C185.416 20.9929 185.236 26.3115 184.142 27.7892C183.869 28.3194 183.488 28.7863 183.023 29.1593H192.032C191.473 28.1981 190.9 26.541 190.861 23.7758Z" fill="#E98862"/>
<path opacity="0.15" d="M184.137 27.7942L188.895 24.1523L185.158 24.1136C185.05 25.3934 184.704 26.6417 184.137 27.7942Z" fill="black"/>
<path d="M194.196 18.423C193.466 23.8116 188.27 24.9647 183.588 24.5623C177.318 24.048 178.558 9.78537 181.535 7.01434C184.512 4.24331 193.251 5.99825 194.313 10.6322C194.862 13.0288 194.573 16.242 194.196 18.423Z" fill="#E98862"/>
<path d="M177.149 5.69017C177.145 3.78926 179.52 0.694361 185.8 4.97643C189.244 5.0392 191.241 5.22248 193.775 7.11371C199.344 10.9173 194.504 22.8504 191.155 23.6936C190.812 23.8977 190.729 23.7316 190.61 23.3504C190.236 21.9415 189.968 20.5065 189.809 19.0575C189.604 17.5511 188.251 16.5935 188.415 14.7894C188.472 14.1589 189.487 11.8484 186.345 11.8222C179.487 12.2802 176.381 11.22 177.149 5.69017Z" fill="#0F1011"/>
<path d="M187.928 17.4102C187.653 20.2555 192.127 20.6227 192.318 17.7689C192.647 14.8314 187.859 14.623 187.928 17.4102Z" fill="#E98862"/>
<path d="M188.895 10.4213L190.517 11.0152C190.023 12.3753 190.896 24.9421 186.326 25.1171C180.193 25.8768 179.093 24.0239 179.322 19.1813C188.717 20.2472 188.013 18.9015 188.895 10.4213Z" fill="#0F1011"/>
<path d="M184.708 16.096C184.701 16.2309 184.747 16.3632 184.836 16.4648C184.925 16.5664 185.05 16.6294 185.185 16.6404C185.319 16.6514 185.453 16.6096 185.557 16.5238C185.661 16.4379 185.728 16.3149 185.743 16.1807C185.75 16.0458 185.704 15.9135 185.615 15.8119C185.526 15.7103 185.401 15.6473 185.267 15.6363C185.132 15.6253 184.999 15.6671 184.894 15.753C184.79 15.8388 184.723 15.9618 184.708 16.096Z" fill="#0F1011"/>
<path d="M180.609 15.7596C180.6 15.8959 180.645 16.0303 180.734 16.1338C180.823 16.2373 180.949 16.3016 181.085 16.3127C181.221 16.3239 181.356 16.2811 181.461 16.1935C181.566 16.1059 181.632 15.9805 181.645 15.8446C181.654 15.7084 181.609 15.574 181.52 15.4705C181.431 15.367 181.305 15.3027 181.169 15.2915C181.033 15.2803 180.898 15.3232 180.793 15.4108C180.688 15.4984 180.622 15.6237 180.609 15.7596Z" fill="#0F1011"/>
<path d="M180.227 14.6948C180.227 14.6948 181.605 14.6772 181.606 14.6775C181.669 14.6745 181.729 14.647 181.772 14.6009C181.815 14.5548 181.839 14.4938 181.838 14.4305C181.838 14.3673 181.812 14.3068 181.768 14.2618C181.723 14.2169 181.663 14.1909 181.6 14.1894L180.224 14.2066C180.161 14.2094 180.101 14.2366 180.058 14.2824C180.014 14.3282 179.99 14.3891 179.991 14.4522C179.991 14.5154 180.016 14.576 180.06 14.6212C180.104 14.6664 180.164 14.6928 180.227 14.6948Z" fill="#0F1011"/>
<path d="M186.347 15.1965C187.335 14.7166 185.264 14.4846 185.047 14.3885C184.985 14.375 184.919 14.3864 184.865 14.4204C184.811 14.4543 184.773 14.5081 184.758 14.5701C184.743 14.6322 184.753 14.6976 184.786 14.7524C184.818 14.8072 184.871 14.847 184.933 14.8633C185.001 14.8719 186.277 15.2012 186.347 15.1965Z" fill="#0F1011"/>
<g opacity="0.15">
<path opacity="0.15" d="M182.919 19.021C183.656 18.6888 182.059 18.436 181.915 18.3456L182.654 16.699C182.518 15.5807 181.595 18.333 181.507 18.3847C181.338 18.748 182.759 18.9112 182.919 19.021Z" fill="black"/>
</g>
<path d="M184.985 20.2314C184.985 20.2314 183.067 20.4337 181.723 19.9639C181.667 21.613 184.776 21.8619 184.985 20.2314Z" fill="#F8FCFF"/>
<path d="M153.358 31.0222C159.714 31.0222 164.866 25.8679 164.866 19.5098C164.866 13.1517 159.714 7.99747 153.358 7.99747C147.002 7.99747 141.849 13.1517 141.849 19.5098C141.849 25.8679 147.002 31.0222 153.358 31.0222Z" fill="#8DDBE0"/>
<path d="M151.661 24.2302C151.463 24.2302 151.273 24.1546 151.129 24.0189L147.367 20.4682C147.293 20.3983 147.234 20.3145 147.192 20.2216C147.15 20.1286 147.127 20.0284 147.125 19.9266C147.122 19.8248 147.139 19.7235 147.175 19.6283C147.211 19.5331 147.266 19.446 147.336 19.3719C147.406 19.2979 147.489 19.2383 147.582 19.1966C147.675 19.1549 147.775 19.132 147.877 19.129C147.979 19.1261 148.08 19.1432 148.175 19.1794C148.27 19.2157 148.357 19.2703 148.432 19.3402L151.618 22.3483L158.245 15.0434C158.384 14.8972 158.576 14.8114 158.778 14.8042C158.98 14.7971 159.176 14.8692 159.326 15.0051C159.476 15.1411 159.566 15.3302 159.579 15.532C159.591 15.7339 159.524 15.9326 159.392 16.0857L152.234 23.9763C152.165 24.0526 152.081 24.1143 151.988 24.1579C151.894 24.2015 151.793 24.2261 151.69 24.2302H151.661Z" fill="white"/>
</g>
<defs>
<clipPath id="clip0_4_2">
<rect width="235" height="178" fill="white"/>
</clipPath>
</defs>
</svg>
