<svg width="30" height="30" viewBox="0 0 30 30" fill="none" xmlns="http://www.w3.org/2000/svg">
<path d="M11.8786 5.32152L10.718 5.78576L11.8786 5.32152ZM13.1965 8.6161L14.357 8.15186L13.1965 8.6161ZM12.7957 11.145L13.7561 11.9453L12.7957 11.145ZM12.0866 11.9961L13.0469 12.7964L12.0866 11.9961ZM12.2394 15.3644L11.3555 16.2483L12.2394 15.3644ZM14.6356 17.7606L15.5195 16.8767L14.6356 17.7606ZM18.0039 17.9134L17.2036 16.9531L18.0039 17.9134ZM18.855 17.2043L19.6553 18.1645L18.855 17.2043ZM21.3839 16.8035L20.9196 17.9641L21.3839 16.8035ZM24.6785 18.1214L25.1427 16.9607L24.6785 18.1214ZM6.11843 5H9.55741V2.5H6.11843V5ZM10.718 5.78576L12.0358 9.08034L14.357 8.15186L13.0393 4.85729L10.718 5.78576ZM11.8355 10.3448L11.1263 11.1959L13.0469 12.7964L13.7561 11.9453L11.8355 10.3448ZM11.3555 16.2483L13.7517 18.6445L15.5195 16.8767L13.1233 14.4805L11.3555 16.2483ZM18.8041 18.8738L19.6553 18.1645L18.0548 16.2439L17.2036 16.9531L18.8041 18.8738ZM20.9196 17.9641L24.2143 19.282L25.1427 16.9607L21.8481 15.643L20.9196 17.9641ZM25 20.4426V23.8816H27.5V20.4426H25ZM23.8816 25C13.4536 25 5 16.5464 5 6.11843H2.5C2.5 17.9271 12.0729 27.5 23.8816 27.5V25ZM25 23.8816C25 24.4993 24.4993 25 23.8816 25V27.5C25.88 27.5 27.5 25.88 27.5 23.8816H25ZM24.2143 19.282C24.6888 19.4719 25 19.9315 25 20.4426H27.5C27.5 18.9092 26.5664 17.5302 25.1427 16.9607L24.2143 19.282ZM19.6553 18.1645C20.0079 17.8705 20.4934 17.7936 20.9196 17.9641L21.8481 15.643C20.5693 15.1314 19.1129 15.3621 18.0548 16.2439L19.6553 18.1645ZM13.7517 18.6445C15.1233 20.016 17.3141 20.1154 18.8041 18.8738L17.2036 16.9531C16.707 17.367 15.9766 17.3339 15.5195 16.8767L13.7517 18.6445ZM11.1263 11.1959C9.88464 12.6859 9.98402 14.8767 11.3555 16.2483L13.1233 14.4805C12.6661 14.0234 12.633 13.293 13.0469 12.7964L11.1263 11.1959ZM12.0358 9.08034C12.2064 9.50662 12.1294 9.99209 11.8355 10.3448L13.7561 11.9453C14.6379 10.8871 14.8686 9.43074 14.357 8.15186L12.0358 9.08034ZM9.55741 5C10.0685 5 10.5282 5.31119 10.718 5.78576L13.0393 4.85729C12.4697 3.43356 11.0908 2.5 9.55741 2.5V5ZM6.11843 2.5C4.12003 2.5 2.5 4.12003 2.5 6.11843H5C5 5.50074 5.50074 5 6.11843 5V2.5Z" fill="white"/>
</svg>
