<svg width="122" height="74" viewBox="0 0 122 74" fill="none" xmlns="http://www.w3.org/2000/svg">
<path d="M16.1435 46.4983C14.1101 45.6663 12.4773 44.4337 11.245 42.7698C11.1217 42.6157 10.9985 42.4616 10.9061 42.2767C9.39648 39.9349 11.0909 36.8227 13.8945 36.8227H15.8662C17.2217 36.8227 18.3924 37.593 19.0394 38.7948C19.2551 39.1954 19.5015 39.5343 19.8404 39.8116C20.6106 40.4895 21.6273 40.8285 22.8596 40.8285C24.1227 40.8285 25.1394 40.5204 25.8788 39.9349C26.6182 39.3494 26.9879 38.5483 26.9879 37.5006C26.9879 36.6378 26.6798 35.8983 26.0945 35.3436C25.5091 34.789 24.8005 34.2959 23.9379 33.9262C23.0753 33.5564 21.8738 33.125 20.3025 32.6628C18.0227 31.9541 16.1743 31.2454 14.7263 30.5674C13.2475 29.9204 12.0152 28.9035 10.9677 27.5169C9.92022 26.1302 9.39648 24.343 9.39648 22.1552C9.39648 18.889 10.598 16.3006 12.9702 14.4518C15.3424 12.6029 18.4541 11.6785 22.2743 11.6785C26.1561 11.6785 29.2985 12.6029 31.6707 14.4518C31.8556 14.6058 32.0404 14.7291 32.1945 14.8831C35.0596 17.4407 33.2111 22.2169 29.3909 22.2169H29.0828C27.6657 22.2169 26.4025 21.4465 25.6015 20.2756C25.4167 19.9983 25.201 19.7518 24.9546 19.5361C24.1844 18.889 23.1985 18.55 21.997 18.55C20.9495 18.55 20.1177 18.8273 19.5015 19.382C18.8546 19.9366 18.5465 20.7378 18.5465 21.7547C18.5465 22.8948 19.0702 23.7884 20.1485 24.4047C21.2268 25.0518 22.8904 25.7297 25.1702 26.4692C27.45 27.2395 29.2985 27.9791 30.7157 28.6878C32.1328 29.3965 33.3652 30.4134 34.4126 31.7384C35.4601 33.0634 35.9839 34.789 35.9839 36.9151C35.9839 38.918 35.4601 40.7361 34.4435 42.4C33.4268 44.0331 31.948 45.3581 30.0071 46.3134C28.0662 47.2994 25.7864 47.7616 23.1369 47.7616C20.4874 47.7616 18.1768 47.3302 16.1435 46.4983Z" fill="#0E1D47"/>
<path d="M84.7221 16.8244L76.7428 47.3918H71.3822C68.4246 47.3918 65.8676 45.3581 65.159 42.4924L60.7226 24.1889L56.1014 42.5541C55.3928 45.3889 52.8357 47.3918 49.8782 47.3918H44.4868L36.6615 16.5779C36.107 14.3285 37.8014 12.1407 40.112 12.1407H41.8065C43.5009 12.1407 44.9797 13.3424 45.2878 15.0064L49.7858 37.8087L54.9615 16.5779C55.6085 13.9587 57.9499 12.1407 60.6302 12.1407H60.8767C63.5878 12.1407 65.9292 14.0203 66.5453 16.6395L71.5055 37.8087L76.0959 15.1605C76.4347 13.4041 77.9751 12.1407 79.762 12.1407H81.1176C83.5514 12.1407 85.3383 14.4517 84.7221 16.8244Z" fill="#0E1D47"/>
<path d="M108.445 41.1674H95.2895L93.1946 47.3918H87.988C86.1395 47.3918 84.8456 45.5738 85.4925 43.8174L95.4128 16.393C96.337 13.8355 98.7708 12.1407 101.482 12.1407H102.345C105.056 12.1407 107.49 13.8355 108.414 16.393L118.334 43.8174C118.95 45.543 117.687 47.3918 115.839 47.3918H110.54L108.445 41.1674ZM106.226 34.5424L101.852 21.6314L97.5385 34.5424H106.226Z" fill="#0E1D47"/>
<path d="M6.74709 39.5959C8.99304 39.5959 10.8138 37.7749 10.8138 35.5285C10.8138 33.2821 8.99304 31.4611 6.74709 31.4611C4.50113 31.4611 2.68042 33.2821 2.68042 35.5285C2.68042 37.7749 4.50113 39.5959 6.74709 39.5959Z" fill="#0E1D47"/>
<path d="M109.954 13.6814C112.455 13.6814 114.483 11.6534 114.483 9.15175C114.483 6.6501 112.455 4.6221 109.954 4.6221C107.453 4.6221 105.425 6.6501 105.425 9.15175C105.425 11.6534 107.453 13.6814 109.954 13.6814Z" fill="#0E1D47"/>
<path d="M43.344 57.364V70H40.266V62.422L37.44 70H34.956L32.112 62.404V70H29.034V57.364H32.67L36.216 66.112L39.726 57.364H43.344ZM51.5334 70.126C50.3454 70.126 49.2534 69.85 48.2574 69.298C47.2734 68.746 46.4874 67.978 45.8994 66.994C45.3234 65.998 45.0354 64.882 45.0354 63.646C45.0354 62.41 45.3234 61.3 45.8994 60.316C46.4874 59.332 47.2734 58.564 48.2574 58.012C49.2534 57.46 50.3454 57.184 51.5334 57.184C52.7214 57.184 53.8074 57.46 54.7914 58.012C55.7874 58.564 56.5674 59.332 57.1314 60.316C57.7074 61.3 57.9954 62.41 57.9954 63.646C57.9954 64.882 57.7074 65.998 57.1314 66.994C56.5554 67.978 55.7754 68.746 54.7914 69.298C53.8074 69.85 52.7214 70.126 51.5334 70.126ZM51.5334 67.318C52.5414 67.318 53.3454 66.982 53.9454 66.31C54.5574 65.638 54.8634 64.75 54.8634 63.646C54.8634 62.53 54.5574 61.642 53.9454 60.982C53.3454 60.31 52.5414 59.974 51.5334 59.974C50.5134 59.974 49.6974 60.304 49.0854 60.964C48.4854 61.624 48.1854 62.518 48.1854 63.646C48.1854 64.762 48.4854 65.656 49.0854 66.328C49.6974 66.988 50.5134 67.318 51.5334 67.318ZM67.3578 63.52C68.0898 63.676 68.6778 64.042 69.1218 64.618C69.5658 65.182 69.7878 65.83 69.7878 66.562C69.7878 67.618 69.4158 68.458 68.6718 69.082C67.9398 69.694 66.9138 70 65.5938 70H59.7078V57.364H65.3958C66.6798 57.364 67.6818 57.658 68.4018 58.246C69.1338 58.834 69.4998 59.632 69.4998 60.64C69.4998 61.384 69.3018 62.002 68.9058 62.494C68.5218 62.986 68.0058 63.328 67.3578 63.52ZM62.7858 62.476H64.8018C65.3058 62.476 65.6898 62.368 65.9538 62.152C66.2298 61.924 66.3678 61.594 66.3678 61.162C66.3678 60.73 66.2298 60.4 65.9538 60.172C65.6898 59.944 65.3058 59.83 64.8018 59.83H62.7858V62.476ZM65.0538 67.516C65.5698 67.516 65.9658 67.402 66.2418 67.174C66.5298 66.934 66.6738 66.592 66.6738 66.148C66.6738 65.704 66.5238 65.356 66.2238 65.104C65.9358 64.852 65.5338 64.726 65.0178 64.726H62.7858V67.516H65.0538ZM74.651 57.364V70H71.573V57.364H74.651ZM79.9596 67.624H83.9916V70H76.8816V57.364H79.9596V67.624ZM88.5378 59.83V62.386H92.6598V64.762H88.5378V67.534H93.1998V70H85.4598V57.364H93.1998V59.83H88.5378Z" fill="#0E1D47"/>
</svg>
