<svg width="30" height="30" viewBox="0 0 30 30" fill="none" xmlns="http://www.w3.org/2000/svg">
<path d="M8.98124 24.5062L9.65091 23.4507C9.33357 23.2495 8.94249 23.2016 8.58596 23.3204L8.98124 24.5062ZM3.75003 26.25L2.56418 25.8547C2.41446 26.3039 2.53136 26.7991 2.86614 27.1339C3.20094 27.4686 3.69614 27.5856 4.14532 27.4359L3.75003 26.25ZM5.49377 21.0188L6.67962 21.4141C6.79847 21.0575 6.75059 20.6665 6.54926 20.3491L5.49377 21.0188ZM15 27.5C21.9035 27.5 27.5 21.9035 27.5 15H25C25 20.5229 20.5229 25 15 25V27.5ZM8.31157 25.5618C10.2464 26.7894 12.5422 27.5 15 27.5V25C13.0303 25 11.1971 24.4317 9.65091 23.4507L8.31157 25.5618ZM8.58596 23.3204L3.35474 25.0641L4.14532 27.4359L9.37653 25.6921L8.58596 23.3204ZM4.93588 26.6453L6.67962 21.4141L4.30792 20.6235L2.56418 25.8547L4.93588 26.6453ZM2.50003 15C2.50003 17.4579 3.21072 19.7536 4.43828 21.6885L6.54926 20.3491C5.56826 18.803 5.00003 16.9697 5.00003 15H2.50003ZM15 2.5C8.09647 2.5 2.50003 8.09644 2.50003 15H5.00003C5.00003 9.47715 9.47718 5 15 5V2.5ZM27.5 15C27.5 8.09644 21.9035 2.5 15 2.5V5C20.5229 5 25 9.47715 25 15H27.5Z" fill="white"/>
<path d="M20 15H20.002V15.002H20V15Z" stroke="white" stroke-width="2" stroke-linecap="round" stroke-linejoin="round"/>
<path d="M15 15H15.002V15.002H15V15Z" stroke="white" stroke-width="2" stroke-linecap="round" stroke-linejoin="round"/>
<path d="M10 15H10.002V15.002H10V15Z" stroke="white" stroke-width="2" stroke-linecap="round" stroke-linejoin="round"/>
</svg>
