<svg width="559" height="476" viewBox="0 0 559 476" fill="none" xmlns="http://www.w3.org/2000/svg">
<path opacity="0.1" d="M555.536 328.048C540.293 251.182 450.989 189.748 433.571 109.648C401.914 7.73895 297.57 -8.37305 229.765 35.886C122.328 106.015 236.941 123.418 26.2919 289.339C-25.7221 330.308 -9.14807 511.156 154.485 469.652C242.545 447.316 269.315 444.182 308.925 440.504C408.763 431.235 581.123 457.078 555.536 328.048Z" fill="#367CFF"/>
<path d="M436.268 347.313L281.958 428.812L127.881 347.313V224.243H436.268V347.313Z" fill="white"/>
<path d="M281.958 430.062C281.754 430.062 281.553 430.012 281.373 429.916L127.301 348.417C127.1 348.311 126.933 348.153 126.815 347.959C126.698 347.765 126.636 347.543 126.635 347.317V224.243C126.635 223.911 126.766 223.593 127.001 223.359C127.235 223.125 127.553 222.993 127.885 222.993H436.268C436.599 222.993 436.917 223.125 437.152 223.359C437.386 223.593 437.518 223.911 437.518 224.243V347.313C437.517 347.539 437.455 347.761 437.337 347.955C437.22 348.149 437.052 348.307 436.852 348.413L282.542 429.913C282.362 430.01 282.162 430.061 281.958 430.062V430.062ZM129.131 346.562L281.958 427.399L435.018 346.56V225.493H129.131V346.562Z" fill="#262626"/>
<path d="M436.268 197.834L281.958 116.335L351.299 82.912L505.609 164.412L436.268 197.834Z" fill="white"/>
<path d="M436.268 199.084C436.064 199.084 435.864 199.035 435.684 198.94L281.374 117.44C281.169 117.332 280.999 117.169 280.881 116.97C280.764 116.771 280.704 116.543 280.708 116.311C280.712 116.08 280.781 115.855 280.905 115.66C281.03 115.465 281.206 115.309 281.415 115.208L350.756 81.785C350.932 81.6995 351.126 81.6568 351.322 81.6605C351.518 81.6641 351.71 81.714 351.883 81.806L506.193 163.306C506.397 163.414 506.568 163.577 506.685 163.776C506.803 163.975 506.863 164.203 506.858 164.434C506.854 164.665 506.786 164.891 506.661 165.085C506.536 165.28 506.36 165.436 506.152 165.537L436.811 198.96C436.641 199.042 436.456 199.084 436.268 199.084V199.084ZM284.731 116.384L436.294 196.432L502.836 164.359L351.273 84.313L284.731 116.384Z" fill="#262626"/>
<path d="M127.881 197.834L282.191 116.335L212.85 82.912L58.54 164.412L127.881 197.834Z" fill="white"/>
<path d="M127.881 199.084C127.693 199.084 127.507 199.042 127.338 198.96L58.0009 165.537C57.7926 165.436 57.6162 165.28 57.4915 165.085C57.3667 164.891 57.2984 164.665 57.2942 164.434C57.2899 164.203 57.3499 163.975 57.4674 163.776C57.5849 163.577 57.7554 163.414 57.9599 163.306L212.27 81.806C212.443 81.714 212.635 81.6641 212.831 81.6605C213.027 81.6568 213.221 81.6995 213.397 81.785L282.738 115.208C282.946 115.309 283.122 115.465 283.247 115.66C283.372 115.855 283.44 116.08 283.444 116.311C283.449 116.543 283.389 116.771 283.271 116.97C283.154 117.169 282.983 117.332 282.779 117.44L128.469 198.94C128.288 199.035 128.086 199.085 127.881 199.084ZM61.3129 164.361L127.855 196.434L279.418 116.386L212.876 84.313L61.3129 164.361Z" fill="#262626"/>
<path d="M127.88 197.834L282.19 279.334L202.849 322.756L48.5391 241.257L127.88 197.834Z" fill="white"/>
<path d="M202.849 324.006C202.646 324.006 202.445 323.956 202.265 323.861L47.9554 242.361C47.7561 242.255 47.5892 242.098 47.4723 241.905C47.3553 241.712 47.2927 241.491 47.291 241.266C47.2894 241.04 47.3488 240.819 47.4629 240.624C47.5771 240.43 47.7417 240.27 47.9394 240.161L127.28 196.738C127.462 196.639 127.665 196.586 127.871 196.584C128.078 196.583 128.282 196.633 128.464 196.73L282.774 278.23C282.974 278.336 283.141 278.493 283.257 278.686C283.374 278.879 283.437 279.1 283.439 279.325C283.44 279.551 283.381 279.772 283.267 279.967C283.153 280.161 282.988 280.321 282.79 280.43L203.449 323.853C203.265 323.953 203.059 324.006 202.849 324.006V324.006ZM51.1794 241.237L202.838 321.337L279.551 279.353L127.891 199.253L51.1794 241.237Z" fill="#262626"/>
<path d="M436.267 197.834L281.957 279.334L361.298 322.756L515.608 241.257L436.267 197.834Z" fill="white"/>
<path d="M361.3 324.006C361.091 324.006 360.884 323.953 360.7 323.853L281.359 280.43C281.162 280.321 280.997 280.161 280.883 279.967C280.769 279.772 280.709 279.551 280.711 279.325C280.713 279.1 280.775 278.879 280.892 278.686C281.009 278.493 281.176 278.336 281.375 278.23L435.685 196.73C435.868 196.633 436.072 196.583 436.278 196.584C436.485 196.586 436.688 196.639 436.869 196.738L516.21 240.161C516.408 240.27 516.573 240.43 516.687 240.624C516.801 240.819 516.86 241.04 516.859 241.266C516.857 241.491 516.794 241.712 516.677 241.905C516.56 242.098 516.393 242.255 516.194 242.361L361.884 323.861C361.704 323.956 361.504 324.006 361.3 324.006V324.006ZM284.6 279.353L361.312 321.337L512.972 241.237L436.259 199.253L284.6 279.353Z" fill="#262626"/>
<path d="M282.191 116.335L127.881 197.834L281.958 279.334L436.268 197.834L282.191 116.335Z" fill="#262626"/>
<path d="M283.207 279.333H280.707V428.812H283.207V279.333Z" fill="#262626"/>
<path d="M195.501 190.435C195.294 190.435 195.092 190.37 194.924 190.25C194.707 190.097 194.561 189.864 194.516 189.602C194.471 189.341 194.532 189.072 194.686 188.856C194.871 188.595 212.944 162.467 192.768 138.647C189.197 134.409 184.742 131.003 179.716 128.669C174.69 126.334 169.214 125.126 163.673 125.131H163.401C165.317 131.787 164.975 137.705 162.262 142.245C161.106 144.296 159.4 145.984 157.336 147.119C155.272 148.253 152.933 148.789 150.582 148.665C148.635 148.506 146.777 147.782 145.236 146.583C143.694 145.383 142.536 143.761 141.903 141.913C139.684 136.125 142.003 130.513 148.115 126.896C151.987 124.761 156.289 123.523 160.704 123.275C159.267 119.467 157.4 115.837 155.138 112.454C147.853 101.328 134.576 93.6259 118.71 91.3229C105.264 89.3719 92.3776 91.6699 85.8766 97.1759C85.6741 97.3473 85.4118 97.4311 85.1475 97.4091C84.8832 97.3871 84.6384 97.2609 84.4671 97.0584C84.2958 96.856 84.2119 96.5937 84.2339 96.3294C84.256 96.065 84.3821 95.8203 84.5846 95.6489C91.5026 89.7899 105.01 87.3129 118.997 89.3489C135.43 91.7349 149.212 99.7579 156.812 111.363C159.276 115.043 161.28 119.012 162.78 123.179C168.758 123.035 174.692 124.235 180.145 126.689C185.598 129.143 190.432 132.789 194.289 137.359C215.482 162.378 196.506 189.744 196.312 190.018C196.219 190.147 196.097 190.252 195.956 190.324C195.815 190.397 195.659 190.435 195.501 190.435ZM161.353 125.204C157.072 125.386 152.892 126.555 149.138 128.618C143.862 131.74 141.908 136.326 143.775 141.198C144.28 142.691 145.21 144.004 146.451 144.976C147.691 145.949 149.188 146.539 150.759 146.674C152.736 146.763 154.699 146.299 156.428 145.336C158.157 144.373 159.584 142.948 160.55 141.22C163.04 137.05 163.268 131.507 161.35 125.204H161.353Z" fill="#292A2E"/>
<path d="M68.6177 113.299C66.9183 113.809 65.0868 113.636 63.5131 112.817C61.9394 111.997 60.7479 110.595 60.1922 108.91C59.6365 107.225 59.7605 105.39 60.5379 103.795C61.3153 102.2 62.6846 100.971 64.3543 100.371C66.0239 99.7702 67.8621 99.8452 69.4773 100.58C71.0925 101.314 72.3572 102.65 73.002 104.303C73.6469 105.956 73.621 107.796 72.9298 109.43C72.2387 111.064 70.9369 112.364 69.3017 113.053C69.0783 113.147 68.85 113.229 68.6177 113.299V113.299ZM65.2927 102.187C65.1307 102.236 64.9715 102.293 64.8157 102.359C63.6651 102.844 62.7494 103.759 62.2635 104.91C61.7777 106.06 61.7602 107.354 62.2147 108.517C62.6692 109.68 63.5598 110.62 64.6969 111.136C65.8339 111.652 67.1275 111.704 68.3022 111.281C69.4769 110.857 70.4397 109.992 70.9857 108.869C71.5318 107.746 71.6178 106.454 71.2254 105.268C70.8331 104.083 69.9935 103.097 68.8853 102.522C67.7772 101.946 66.4881 101.826 65.2927 102.187Z" fill="#292A2E"/>
<path d="M68.605 97.629C66.9975 98.1089 65.2693 97.9778 63.7526 97.2606C62.236 96.5435 61.038 95.291 60.389 93.744V93.744C59.8686 92.5038 59.7277 91.1371 59.9841 89.8167C60.2405 88.4964 60.8826 87.2818 61.8294 86.3265C62.7761 85.3711 63.9849 84.718 65.3028 84.4497C66.6207 84.1814 67.9886 84.3099 69.2335 84.8191C70.4784 85.3282 71.5444 86.1951 72.2965 87.31C73.0487 88.425 73.4534 89.738 73.4593 91.083C73.4652 92.428 73.0722 93.7445 72.3299 94.866C71.5876 95.9876 70.5293 96.8639 69.289 97.384C69.0654 97.4775 68.8371 97.5593 68.605 97.629V97.629ZM65.284 86.516C65.1201 86.5651 64.9588 86.6229 64.801 86.689C63.6278 87.1817 62.6984 88.1201 62.2168 89.2979C61.7353 90.4757 61.7411 91.7965 62.233 92.97V92.97C62.5917 93.8254 63.1906 94.5586 63.9573 95.0808C64.7239 95.603 65.6255 95.8919 66.5528 95.9125C67.4802 95.9331 68.3937 95.6846 69.1828 95.1969C69.9719 94.7093 70.6028 94.0035 70.9992 93.1648C71.3956 92.3262 71.5405 91.3907 71.4163 90.4714C71.2922 89.5521 70.9044 88.6885 70.2998 87.985C69.6952 87.2815 68.8997 86.7683 68.0095 86.5074C67.1194 86.2465 66.1727 86.2492 65.284 86.515V86.516Z" fill="#292A2E"/>
<path d="M66.6645 104.701C71.5754 104.701 75.5565 102.042 75.5565 98.762C75.5565 95.482 71.5754 92.823 66.6645 92.823C61.7535 92.823 57.7725 95.482 57.7725 98.762C57.7725 102.042 61.7535 104.701 66.6645 104.701Z" fill="white"/>
<path d="M70.6004 105.138C69.3256 105.515 68.0028 105.705 66.6734 105.702C61.1254 105.702 56.7734 102.662 56.7734 98.771C56.7734 94.88 61.1124 91.829 66.6584 91.823C69.0764 91.7766 71.4553 92.4369 73.5034 93.723C74.4233 94.2022 75.1943 94.9243 75.7326 95.8108C76.2709 96.6974 76.556 97.7145 76.557 98.7517C76.5579 99.7889 76.2746 100.807 75.7379 101.694C75.2011 102.582 74.4314 103.305 73.5124 103.786C72.614 104.378 71.6327 104.834 70.6004 105.138V105.138ZM63.3384 94.299C60.6664 95.099 58.7724 96.826 58.7734 98.766C58.7734 101.443 62.3904 103.702 66.6734 103.698C68.6966 103.741 70.6884 103.193 72.4054 102.122C73.0494 101.825 73.5948 101.35 73.9769 100.753C74.3589 100.156 74.5617 99.4615 74.5611 98.7525C74.5604 98.0436 74.3564 97.3496 73.9733 96.7531C73.5902 96.1565 73.0439 95.6824 72.3994 95.387C70.6812 94.3183 68.6884 93.774 66.6654 93.821C65.5391 93.818 64.4184 93.9791 63.3384 94.299V94.299Z" fill="#292A2E"/>
<path d="M68.8455 104.52L68.6355 92.97L65.7635 92.854L65.5625 104.655L68.8455 104.52Z" fill="#292A2E"/>
<path d="M54.8672 101.275C55.3742 101.275 55.7852 100.864 55.7852 100.357C55.7852 99.85 55.3742 99.439 54.8672 99.439C54.3602 99.439 53.9492 99.85 53.9492 100.357C53.9492 100.864 54.3602 101.275 54.8672 101.275Z" fill="#292A2E"/>
<path d="M55.584 96.363C56.091 96.363 56.502 95.952 56.502 95.445C56.502 94.938 56.091 94.527 55.584 94.527C55.077 94.527 54.666 94.938 54.666 95.445C54.666 95.952 55.077 96.363 55.584 96.363Z" fill="#292A2E"/>
<path d="M352.625 132.765C352.411 132.765 352.202 132.696 352.03 132.569C351.858 132.442 351.731 132.263 351.669 132.058C348.352 119.672 347.467 106.76 349.063 94.037C351.648 75.437 361.906 51.026 396.093 40.337C400.903 38.7904 405.837 37.6592 410.841 36.956C412.452 26.895 418.58 15.981 432.285 8.45098C464.847 -9.44102 486.842 6.61198 487.06 6.77598C487.272 6.93511 487.412 7.17201 487.45 7.43456C487.487 7.69711 487.419 7.9638 487.26 8.17598C487.101 8.38815 486.864 8.52842 486.601 8.56593C486.338 8.60343 486.072 8.53511 485.86 8.37598C485.652 8.21998 464.632 -7.04102 433.249 10.205C420.443 17.242 414.581 27.342 412.914 36.718C427.993 35.233 435.214 40.263 438.455 44.062C440.46 46.3465 441.748 49.1706 442.16 52.1823C442.571 55.1941 442.088 58.2603 440.769 60.999C439.726 63.2126 438.037 65.058 435.924 66.2915C433.811 67.5251 431.374 68.0887 428.934 67.908C420.513 67.414 413.544 60.33 411.182 49.86C410.402 46.3157 410.195 42.6697 410.568 39.06C405.861 39.7361 401.22 40.8035 396.691 42.251C370.046 50.582 354.691 68.101 351.043 94.318C349.48 106.752 350.342 119.372 353.581 131.478C353.626 131.628 353.637 131.786 353.61 131.94C353.584 132.094 353.522 132.24 353.429 132.365C353.336 132.491 353.214 132.593 353.075 132.664C352.935 132.734 352.781 132.771 352.625 132.771V132.765ZM412.607 38.81C412.19 42.3509 412.368 45.9366 413.133 49.419C415.294 58.997 421.542 65.47 429.051 65.911C431.097 66.0576 433.14 65.5822 434.912 64.5472C436.684 63.5122 438.101 61.9658 438.979 60.111C440.122 57.7228 440.537 55.051 440.173 52.4284C439.809 49.8058 438.681 47.3483 436.931 45.362C432.255 39.875 423.722 37.659 412.607 38.81V38.81Z" fill="#292A2E"/>
<path d="M510.354 16.883C509.007 16.8802 507.688 16.4965 506.55 15.7764C505.412 15.0562 504.5 14.0289 503.921 12.813C503.342 11.5971 503.118 10.2421 503.276 8.90449C503.433 7.56687 503.966 6.30113 504.813 5.25334C505.659 4.20555 506.784 3.41844 508.059 2.98283C509.333 2.54723 510.705 2.48089 512.016 2.79149C513.326 3.10208 514.522 3.77694 515.466 4.73817C516.409 5.69941 517.062 6.90783 517.348 8.22398V8.22398C517.572 9.26731 517.56 10.3475 517.312 11.3856C517.065 12.4237 516.589 13.3933 515.918 14.2234C515.248 15.0536 514.4 15.7233 513.437 16.1834C512.474 16.6436 511.421 16.8826 510.354 16.883V16.883ZM510.369 4.59898C509.305 4.59896 508.268 4.92883 507.399 5.54313C506.531 6.15743 505.875 7.02592 505.521 8.02889C505.167 9.03187 505.132 10.12 505.423 11.1432C505.713 12.1664 506.314 13.0744 507.142 13.742C507.969 14.4097 508.984 14.8041 510.046 14.8708C511.107 14.9376 512.163 14.6735 513.068 14.1149C513.974 13.5563 514.683 12.7308 515.099 11.752C515.516 10.7732 515.618 9.68942 515.393 8.64998C515.149 7.49996 514.516 6.46913 513.601 5.73122C512.686 4.99331 511.544 4.59344 510.369 4.59898V4.59898Z" fill="#292A2E"/>
<path d="M507.343 33.204C505.51 33.2039 503.747 32.5011 502.417 31.2403C501.087 29.9795 500.29 28.2567 500.192 26.4265C500.094 24.5963 500.701 22.7981 501.888 21.4019C503.075 20.0058 504.753 19.118 506.575 18.9214C508.397 18.7247 510.226 19.2342 511.684 20.3448C513.142 21.4555 514.118 23.0829 514.413 24.8919C514.707 26.701 514.297 28.554 513.266 30.0696C512.235 31.5851 510.663 32.6479 508.872 33.039C508.37 33.1487 507.857 33.204 507.343 33.204V33.204ZM507.368 20.919C506.998 20.9192 506.629 20.9591 506.268 21.038C504.991 21.3186 503.869 22.078 503.135 23.1601C502.4 24.2423 502.109 25.5647 502.32 26.8554C502.531 28.1462 503.228 29.3069 504.269 30.099C505.31 30.891 506.614 31.254 507.915 31.1134C509.215 30.9727 510.412 30.339 511.259 29.3428C512.106 28.3465 512.539 27.0634 512.469 25.7574C512.399 24.4515 511.831 23.222 510.883 22.322C509.934 21.422 508.676 20.9199 507.368 20.919V20.919Z" fill="#292A2E"/>
<path d="M518.082 19.8045C518.713 16.3888 515.078 12.8549 509.964 11.9112C504.85 10.9676 500.193 12.9715 499.563 16.3872C498.933 19.8028 502.568 23.3368 507.682 24.2804C512.796 25.2241 517.452 23.2202 518.082 19.8045Z" fill="white"/>
<path d="M510.199 25.515C509.294 25.5136 508.39 25.4299 507.499 25.265C504.984 24.8478 502.646 23.7058 500.77 21.979C499.949 21.2787 499.318 20.3826 498.935 19.3738C498.552 18.3649 498.43 17.2758 498.579 16.207C498.822 15.1555 499.325 14.1818 500.043 13.3761C500.76 12.5704 501.67 11.9585 502.686 11.597C505.065 10.6986 507.644 10.4676 510.145 10.9291C512.645 11.3905 514.972 12.5268 516.873 14.215C517.694 14.9154 518.325 15.8115 518.708 16.8203C519.091 17.8292 519.214 18.9183 519.064 19.987C518.822 21.0386 518.319 22.0122 517.601 22.818C516.883 23.6237 515.974 24.2356 514.957 24.597C513.45 25.2211 511.831 25.5333 510.199 25.515V25.515ZM507.437 12.677C506.08 12.6598 504.732 12.9173 503.476 13.434C502.766 13.6719 502.126 14.0832 501.614 14.6308C501.102 15.1784 500.735 15.8449 500.546 16.57C500.464 17.3149 500.569 18.0685 500.852 18.7625C501.134 19.4566 501.585 20.0693 502.164 20.545C503.782 21.9568 505.75 22.9074 507.861 23.2971C509.972 23.6869 512.149 23.5013 514.164 22.76C514.875 22.5222 515.515 22.1109 516.027 21.5633C516.538 21.0157 516.905 20.3492 517.094 19.624V19.624C517.177 18.8791 517.072 18.1254 516.79 17.4312C516.507 16.7371 516.056 16.1245 515.476 15.649C513.884 14.1968 511.904 13.2401 509.776 12.896C509.006 12.7526 508.225 12.6793 507.441 12.677H507.437Z" fill="#292A2E"/>
<path d="M507.668 11.681L505.657 23.747L508.624 24.423L511.112 12.174L507.668 11.681Z" fill="#292A2E"/>
<path d="M519.723 24.662C520.26 24.662 520.695 24.2268 520.695 23.69C520.695 23.1532 520.26 22.718 519.723 22.718C519.186 22.718 518.751 23.1532 518.751 23.69C518.751 24.2268 519.186 24.662 519.723 24.662Z" fill="#292A2E"/>
<path d="M521.417 19.6859C521.954 19.6859 522.389 19.2508 522.389 18.7139C522.389 18.1771 521.954 17.7419 521.417 17.7419C520.88 17.7419 520.445 18.1771 520.445 18.7139C520.445 19.2508 520.88 19.6859 521.417 19.6859Z" fill="#292A2E"/>
</svg>
